<svg xmlns="http://www.w3.org/2000/svg" xml:space="preserve" viewBox="0 0 64 64" id="french-fries">
  <path d="M14.6 25.2c-.5 0-.9-.3-1-.8l-3.1-13.8c-.1-.3 0-.5.1-.8.1-.2.4-.4.6-.4L18 7.9c.5-.1 1.1.2 1.2.8L22.1 22c.1.5-.2 1.1-.8 1.2-.5.1-1.1-.2-1.2-.8L17.5 10l-4.8 1.1L15.6 24c.1.5-.2 1.1-.8 1.2h-.2z"></path>
  <path d="M22.5 28.8c-.5 0-.9-.3-1-.8l-1.3-5.7V22l.9-20c0-.6.5-1 1-1l6.9.3c.3 0 .5.1.7.3.2.2.3.5.3.7l-.3 5.8c0 .6-.5 1-1 1-.6 0-1-.5-1-1l.3-4.8-4.9-.3-.9 19 1.2 5.6c.1.5-.2 1.1-.8 1.2h-.1z"></path>
  <path d="M28.3 19.2c-.6 0-1-.5-1-1l.3-6.4c0-.6.5-1 1-1 .6 0 1 .5 1 1l-.3 6.4c0 .6-.4 1-1 1z"></path>
  <path d="M37.6 24.4c-.5 0-1-.4-1-.9L34.1 8.2l-4.9.8 1.5 8.9c.1.5-.3 1.1-.8 1.2-.5.1-1.1-.3-1.2-.8l-1.6-9.9c0-.3 0-.5.2-.7.2-.2.4-.4.7-.4l.8-.1 6.1-1c.3 0 .5 0 .7.2.2.2.4.4.4.6l2.7 16.4v.2c-.1.4-.5.8-1.1.8z"></path>
  <path d="M34 30.3c-.5 0-1-.4-1-.9l-.9-10.5-4.9.4.8 9.8c0 .6-.4 1-.9 1.1-.6 0-1-.4-1.1-.9l-.9-10.8c0-.3.1-.5.2-.7.2-.2.4-.3.7-.4l6.9-.6c.3 0 .5.1.7.2.2.2.3.4.4.7l1 11.5c0 .5-.4 1-1 1.1zm3-.6h-.1c-.5-.1-.9-.6-.9-1.1l.6-5.2v-.1l.7-6.4c.1-.5.5-.9 1.1-.9l6.9.8c.5.1.9.6.9 1.1l-.7 6.6c-.1.5-.6.9-1.1.9-.5-.1-.9-.6-.9-1.1l.6-5.6-4.9-.5-.6 5.4v.1l-.6 5.1c0 .5-.5.9-1 .9z"></path>
  <path d="M48.3 25.2H48c-.5-.2-.8-.7-.6-1.3l3.9-12.2-4.7-1.5-2.5 7.6c-.2.5-.7.8-1.3.6-.5-.2-.8-.7-.6-1.3L45 8.5c.2-.5.7-.8 1.3-.6l6.6 2.1c.3.1.5.3.6.5.1.2.1.5.1.8l-4.2 13.1c-.3.5-.7.8-1.1.8z"></path>
  <path d="M44.9 63H17.1c-.9 0-1.7-.7-1.8-1.6l-3.9-37.1c0-.3.1-.6.3-.8.2-.2.5-.3.7-.3h3c2.4 0 4.5 1 5.9 2.6 1.6 1.9 5.5 3.2 9.7 3.2s8.1-1.3 9.7-3.2c1.4-1.7 3.5-2.6 5.9-2.6h3c.3 0 .6.1.7.3.2.2.3.5.3.8l-3.9 37.1c-.1.9-.9 1.6-1.8 1.6zm-.2-1.8zm-27.4 0zm-.1-.2h27.5l3.7-35.8h-1.9c-1.8 0-3.4.7-4.4 1.9-2 2.4-6.4 3.9-11.2 3.9s-9.3-1.5-11.2-3.9c-1-1.2-2.6-1.9-4.4-1.9h-1.9L17.2 61z"></path>
  <path d="M46.6 53.6H15.4c-.5 0-.9-.4-1-.9l-1.3-12.6c0-.3.1-.6.3-.8.2-.2.5-.3.7-.3H48c.3 0 .6.1.7.3.2.2.3.5.3.8l-1.3 12.6c-.2.5-.6.9-1.1.9zm-30.3-2h29.4L46.8 41H15.2l1.1 10.6z"></path>
</svg>
