<svg xmlns="http://www.w3.org/2000/svg" width="1817.983" height="965.483" viewBox="0 0 1817.983 965.483" id="sandwich">
  <path d="M1687.326,648.171c14.035,2.43,27.479,4.52,40.823,7.122,21.1,4.115,41.4,10.553,58.775,23.774,21.88,16.644,34.709,37.9,30.138,66.349-3.281,20.422-15.214,35.96-31.357,48.279-25.789,19.679-54.035,22.56-84.092,11.554-7.506-2.748-14.916-5.758-22.409-8.542-3.11-1.155-6.23-2.4-9.642-2.418-3.166-.019-5.032,1.4-5.233,4.678-.041.664-.067,1.332-.048,2,.808,28.369-2.552,56.523-4.388,84.754-.626,9.633-1.294,19.273-2.326,28.869-2.292,21.315-11.759,30.239-33.024,31-22.295.794-44.6,1.5-66.9,1.872-60.274,1.015-120.57,1.186-180.82,2.949-44.295,1.3-88.6.581-132.867,1.9-73.266,2.179-146.561.407-219.812,2.048-76.6,1.716-153.224.347-229.807,2.027-76.272,1.672-152.56.308-228.809,2.012-67.945,1.519-135.9.274-203.823,2.031-34.966.9-69.969.166-104.878,1.962-26.611,1.37-53.3.2-79.844,2.977-1.321.138-2.662.1-3.994.117-22.942.337-34.3-10.06-34.843-32.825-.481-20.295-1.226-40.624,1.1-60.887.706-6.161.127-6.938-6.66-5.863a211.076,211.076,0,0,1-44.841,1.967c-18.574-1.028-36.152-5.749-51.876-16.114-34.42-22.691-42.6-62.6-30.763-97.062,7.138-20.775,19.328-37.809,37.993-49.922,6.185-4.014,6.193-4.293,2.615-9.954-26.646-42.166-21.037-82.9,5.683-122.481,9.394-13.917,21.5-25.362,35.01-35.33,7.636-5.633,7.624-5.739,3.315-14.5-21.795-44.277-28.042-91.154-24.358-139.957,3.052-40.417,10.481-79.839,23.664-118.177,17.67-51.384,44.327-97.456,80.958-137.7,43.1-47.357,93.99-83.408,154.079-106.01q100.777-37.908,203.77-6.2c37.212,11.487,71.361,29.361,104.779,48.908,10.918,6.387,21.868,12.7,33.581,17.65,15.685,6.626,31.543,7.3,47.88,3.014,14.561-3.818,28.414-9.5,42.2-15.4,34.612-14.8,69.14-29.747,106.116-38.032,73-16.356,142.9-8.437,209.531,26.073,25.066,12.983,46.9,30.364,67.385,49.586,4.371,4.1,8.79,8.153,13.174,12.241,8.162,7.613,17.475,8.772,27.833,5.344,16.475-5.452,32.181-12.785,48.171-19.423,32.482-13.483,65.988-23.07,101.05-26.768,42.254-4.457,83.825-.1,124.708,10.714,74.01,19.586,139.769,55.039,198.028,104.536,28.09,23.867,52.982,50.586,71.952,82.43,12.575,21.11,21.6,43.5,24.487,68.124a112.07,112.07,0,0,1-12.552,66.668c-10.914,20.737-26.7,37.25-45.475,51.04-1.342.986-2.743,1.892-4.088,2.873-7.328,5.342-7.435,5.978-.145,11.142,14.735,10.436,26.238,23.56,33.6,40.095,12.131,27.231,10.611,54.449-.757,81.451a163.959,163.959,0,0,1-27.073,42.95q-2.266,2.647-4.322,5.47C1687.552,645.628,1687.636,646.408,1687.326,648.171ZM1323.37,122.145c-26.951,2.158-51.757,11.9-76.527,21.726-4.192,1.663-3.044,4.294-.964,7.093,9.622,12.949,16.423,27.408,22.093,42.4,12.194,32.242,19.022,65.833,24.551,99.725a38.58,38.58,0,0,1,.281,8.942c-.24,3.273-.286,7.283-4.109,8.394-4.351,1.265-6.549-2.5-8.622-5.438-3.3-4.673-4.9-10.175-6.862-15.479q-23.565-63.717-47.116-127.439c-2.844-7.681-3.18-7.786-10.766-4.73-11.742,4.73-23.477,9.337-36.069,11.563-16.291,2.879-31.008-.455-44.707-9.517-9.546-6.314-17.345-14.535-25.342-22.534-28.993-29-62.282-50.941-101.893-62.671-22.165-6.565-44.694-10.664-67.893-10.246-8.3.15-9.4,1.384-7.052,8.576,11.621,35.547,24.96,70.329,46.425,101.375q11.364,16.437,22.78,32.84c2.676,3.859,5.053,7.89,5.779,12.611.927,6.028-2.094,8.969-8.015,7.782-4.7-.942-8.555-3.6-12.179-6.6a336.033,336.033,0,0,1-38.59-37.638c-27.689-31.639-47.383-66.777-47.153-110.376.026-4.992-2.747-6.416-7.137-5.672-15.466,2.62-30.531,6.822-45.5,11.449-5.228,1.617-5.467,4.52-3.932,9.133,11.5,34.559,24.543,68.357,46.346,98.05a150.183,150.183,0,0,1,8.656,13.432,29.113,29.113,0,0,1,3.41,8.254c1.372,6.316-2.236,9.522-8.55,7.938a23.935,23.935,0,0,1-9.566-5.234c-3.563-3.007-7.043-6.114-10.522-9.219-31.068-27.729-53.177-60.359-56.707-103.246-.478-5.807-1.552-6.3-6.959-4.461-1.886.639-3.669,1.58-5.5,2.368-21.42,9.191-42.521,19.11-64.393,27.264-35.285,13.156-69.735,12.741-103.289-5.436-11.711-6.344-23.427-12.688-34.978-19.316-28.642-16.439-57.626-32.11-89.471-41.647-4.017-1.2-8.088-2.224-12.464-3.42.149,3.866,2.491,5,4.033,6.6A161.991,161.991,0,0,1,535.315,103.6c8.669,18.568,13.639,38.2,17.395,58.23,3.931,20.951,6.869,42.049,9.548,63.186.714,5.632.959,11.355-1.535,16.707-2.21,4.741-5.514,5.407-9.506,2a20.554,20.554,0,0,1-5.549-8.211c-2.1-5.25-4.133-10.539-5.927-15.9-9.3-27.789-17.989-55.792-29.733-82.7-6.4-14.675-13.234-29.126-22.493-42.262-13.53-19.2-32.112-32.572-51.6-45.025a30.91,30.91,0,0,0-20.772-5.043c-19.936,2.053-39.564,5.558-58.639,11.815-2.041.67-4.8.541-5.413,3.458.793,1.8,2.467,2.294,3.965,2.854,40.093,14.98,65.244,44.664,81.774,82.9,18.468,42.715,18.992,87.305,13.96,132.487a18.019,18.019,0,0,1-2.946,8.409c-3.17,4.564-7.19,4.536-10.381-.123-2.307-3.367-3.115-7.279-3.706-11.28-1.946-13.171-3.8-26.36-6.074-39.477-4.966-28.68-13.1-56.4-25.664-82.745-13.425-28.148-34.369-47.954-64.257-57.709-13.355-4.359-27.143-6.495-41.129-7.826a20.806,20.806,0,0,0-14.1,3.343c-54.67,35.169-98.251,80.754-127.482,138.969-32.363,64.45-46.007,133.173-41.946,205.161a179,179,0,0,0,20.257,72.644c2.473,4.78,5.463,7.534,11.147,8.555a78.874,78.874,0,0,0,23.846.766c33.734-4.181,67.667-5.719,101.574-7.07,33.6-1.339,67.247-1.518,100.878-1.809,21.638-.187,43.3.69,64.916.76,79.93.259,159.864,1.543,239.8-.63,46.932-1.277,93.872-2.042,140.78-4.219,36.583-1.7,73.193-2.844,109.8-4.008,45.593-1.45,91.186-3.034,136.792-3.892,61.6-1.16,123.215-1.8,184.826-2.441,41.626-.433,83.213-1.79,124.8-3.614,39.619-1.738,79.075-5.007,118.323-10.621,40.316-5.766,80.048-14.088,118.04-29.212,22.372-8.907,43.579-19.947,62.172-35.572,28.589-24.025,37.3-54.236,25.939-89.674-4.318-13.46-10.894-25.719-18.475-37.532-18.023-28.082-41.3-51.424-67.044-72.192-54.188-43.715-114.723-74.953-183.092-89.887-34.448-7.524-69.182-9.726-104.158-3.674A8.506,8.506,0,0,1,1323.37,122.145ZM279.616,915.057c27.361-.245,59.325-.227,91.3-1.293,39.607-1.32,79.258-.354,118.888-1.947,37.6-1.511,75.257-.532,112.885-2.075,35.6-1.461,71.26-.395,106.893-1.907,37.262-1.581,74.589-.561,111.886-2.055,36.932-1.479,73.926-.376,110.89-1.98,35.929-1.559,71.922-.479,107.887-2.014,35.929-1.533,71.924-.511,107.892-1.938,41.261-1.636,82.586-1.274,123.879-1.94,98.585-1.591,197.192-1.82,295.791-2.582,10.327-.079,20.656.028,30.983-.089,9.759-.111,10.61-.732,11.913-10.631,2.91-22.115,5.639-44.256,8.332-66.4,1.041-8.552.157-9.659-8.157-8.57-26.39,3.458-52.479.85-78.572-3.092-27.03-4.083-53.567-10.681-80.474-15.375-27.752-4.842-55.523-6.149-83.432-1.2-21.2,3.762-41.228,11.11-60.3,20.7-44.789,22.535-90.8,26.962-138.544,11.179-16.129-5.332-32.241-10.725-48.258-16.38-15.087-5.326-30.269-10.279-45.766-14.29-25.507-6.6-49.517-4.177-71.584,11.175-3.274,2.277-6.852,4.115-10.261,6.2-29.239,17.9-60.68,24.692-94.791,19.766-23.848-3.444-46.868-10.05-69.927-16.622-38.431-10.954-76.62-22.815-116.995-24.839-31.32-1.57-59.462,5.106-82.338,28.09-8.217,8.257-16.859,16.112-25.592,23.828a133.2,133.2,0,0,1-56.776,30.2c-28.452,7.059-56.869,4.872-85.283.044-36.218-6.154-71.168-17.316-106.431-27.228-20.57-5.782-41.351-10.626-62.751-11.577-38.228-1.7-73.281,11.964-108.787,23.281-3.73,1.189-4.135,3.791-3.234,7.122,3.932,14.524,5.332,29.466,7.324,44.316,1.336,9.958,1.457,10.059,11.941,10.09C225.033,915.107,250.02,915.057,279.616,915.057ZM504.78,647.628l-.315-1.368c-10.429.808-20.851,1.736-31.29,2.4-37.59,2.4-75.169,3.733-112.544-2.688-29.967-5.148-57.94-15.322-82.221-34.07-21.832-16.857-39.17-37.078-45.358-64.908-1.267-5.695-4.586-7.393-9.987-7.354-18.314.131-36.63.019-54.945.019-3.678,0-7.179.321-10.466,2.519-9.96,6.66-20.2,12.9-30.109,19.636-17.312,11.777-31.843,26.367-42,44.777-12.048,21.846-14.683,44.037-.3,66.14,10.643,16.357,25.83,26.51,44.17,32.418,11.9,3.833,24.151,4.655,36.512,4.529,45.27-.463,90.559.451,135.8-2.359,37.032-2.3,73.468-7.576,108.728-19.638,23.992-8.207,46.932-18.882,69.984-29.315C488.516,654.71,496.664,651.2,504.78,647.628ZM1037.2,618.771c1.291,1.118,1.7,1.77,2.218,1.878,24.186,5.026,47.339,13.483,70.686,21.283,21.155,7.067,42.41,13.722,64.283,18.286,31.546,6.581,63.192,8.805,95.112,2.946,24.414-4.481,47.247-13.618,69.844-23.5,21.957-9.6,43.945-19.087,67.71-23.591,13.253-2.512,26.629-3.042,40.106-3.421a15.675,15.675,0,0,0-4.666-1.728c-29.318-6.436-57.778-15.766-85.9-26.08-37.6-13.79-75.581-25.6-115.872-28.629-15.225-1.146-15.176-1.908-20.7,12.615-10.4,27.34-29.928,43.225-59.013,47.354a208.942,208.942,0,0,1-29.849,1.934q-41.931-.08-83.863-.016C1044.169,618.106,1041.044,618.505,1037.2,618.771ZM926.873,636.316c-11.427,1.887-20.485,3.664-29.621,4.836-20.676,2.651-40.786.586-58.937-10.342-28.91-17.4-49.614-42.072-61.709-73.6-1.988-5.183-4.145-7.7-9.793-7.539-11.653.335-23.318.3-34.978.31a16.938,16.938,0,0,0-10.955,4.058c-7.82,6.22-15.818,12.218-23.758,18.287-30.392,23.228-63.106,42.177-99.633,54.122-1.237.405-3.352.326-2.9,3.107,36.547,1.324,71.854,9.407,106.917,19.083,31.775,8.769,63.581,17.2,96.465,21.4C844.819,676.029,885.654,660.685,926.873,636.316Zm-420.51-87.79c5.7,4.388,11.182,8.607,15.355,14.25,2.2,2.976,4.544,6.18,2.471,10.028-2.125,3.944-6.089,3.627-9.75,3.007-7.877-1.334-15.8-2.553-23.553-4.426-13.479-3.254-15.5-10.35-6.5-21.385.3-.372.112-1.147.207-2.571-23.805-2.442-47.787-1.2-71.634-2.862-23.567-1.639-47.245-2.259-70.875-2.267s-47.256-3.47-72.114-1.341c1.719,2.447,2.391,3.578,3.229,4.569q32.952,38.988,82.4,51.718c19.115,4.953,38.639,7.169,58.3,7.777a641.511,641.511,0,0,0,85.756-3.472c56.981-5.878,110.8-22.386,162.49-46.495,1.813-.845,4.718-1.007,4.6-4.828C613.314,550.279,560.066,550.139,506.363,548.526Zm310.677.853c10.124,10.674,19.63,21.337,29.824,31.3,15.5,15.143,34.25,19.171,55.353,15.444,47.172-8.332,94.072-18.545,142.272-19.805,18.983-.5,37.919-.826,56.892.091,18.945.915,37.9,1.9,56.8-1.195,16.788-2.749,28.105-12.927,36.81-26.641,2.694-4.244,1.652-6.035-3.1-6.789a18.862,18.862,0,0,0-2.99-.155c-22.648.06-45.3.164-67.943.169-4.309,0-7.611,1.071-9.878,5.222-2.487,4.554-7,6.749-11.655,8.906-21.369,9.9-43.632,11.116-66.452,7.387-6.89-1.126-13.777-2.393-20.549-4.069-3.185-.788-6.666-2.536-6.7-6.481-.037-4.119,3.6-5.291,6.848-6.107a38.587,38.587,0,0,1,8.855-1.272c8.669-.108,17.2-1.3,26.577-2.775-10.778-.788-20.633.616-30.515.835-31.954.708-63.914.658-95.866,2.052-32.925,1.437-65.9,1.767-98.849,2.622C820.86,548.164,818.758,547.662,817.04,549.379Zm767.146-39.4c8.875,22.152,1.92,39.694-19.194,49.947a50.415,50.415,0,0,1-9.361,3.4,83.2,83.2,0,0,1-32.675,2.019,425.692,425.692,0,0,1-58.475-12.695,38.515,38.515,0,0,1-6.542-2.366c-3.08-1.537-5.88-3.744-5.4-7.6.42-3.371,3.372-4.69,6.31-5.68a39.509,39.509,0,0,1,12.81-1.7c21.631.028,43.263.1,64.895.1,5.984,0,12,.122,17.944-.4a18.074,18.074,0,0,0,14.687-9.109c2.136-3.651,1.17-6.21-2.7-7.968-4.547-2.067-9.038-1.418-13.672-.412-38.439,8.346-77.37,13.3-116.547,16.309-31.512,2.418-63.06,4.358-94.682,4.661-.968.009-2.045.047-2.466,2.1,9.335,3.763,18.862,7.484,28.3,11.431,24.568,10.28,49.2,20.348,75.317,26.173,31.564,7.039,63.252,13.006,95.834,11.144,16.78-.959,31.921-6.383,44.631-17.635,20.181-17.866,27.221-41.949,31.368-67.308.443-2.713-1.642-3.5-3.893-2.81C1601.837,504.289,1593.045,507.151,1584.186,509.975Zm-82.127,112.848c23.445,7.4,46.431,16.532,70.95,19.786,17.737,2.355,35.43,1.967,51.586-7.084a114.3,114.3,0,0,0,51.276-57.974c5.77-14.15,5.429-28.732.623-43.054-5.241-15.621-13.746-29.527-23.734-42.579-2.77-3.619-5.572-5.174-10.194-3.239-6.81,2.85-8.787,4.49-7.877,10.768,1.888,13.032.737,25.974-.653,38.858-3.556,32.968-18.566,58.724-48.747,74.247-14.756,7.589-30.678,10.8-47.2,11.455C1526.093,624.479,1514.193,623.2,1502.059,622.823Z"></path>
  <path d="M257.925 264.478a49.249 49.249 0 01-25.443-5.53c-17.385-9.159-23.6-27.511-14.546-44.889 9.288-17.815 24.8-27.6 44.3-30.4 15.134-2.172 29.868-.313 42.871 9.032 6.433 4.624 11.246 10.289 13.523 17.958.471 1.587.529 3.605 1.558 4.668 6.663 6.888 3.173 12.478-1.75 18.257a110.6 110.6 0 01-19.792 18.175C286.7 260.328 273.419 265.045 257.925 264.478zm40.863-41.418c-14.341-7.825-30.807-5.273-42.967 6.93C271.617 232.877 284.975 230.28 298.788 223.06zM1058.59 127.385a67.059 67.059 0 0126.133 5.056c12.123 4.917 20.928 12.538 22.11 26.794.489 5.888 3.053 11.527 2.3 17.671-2.2 18.03-16.716 31.969-35.789 32.932-22.065 1.116-39.668-8.093-51.478-26.56-14.074-22.007-3.416-47.469 21.8-54.049A52.166 52.166 0 011058.59 127.385zM1324.225 121.488c8.63-1.436 14.716 2.74 19.827 9.02 7.479 9.187 12.273 19.862 15.937 30.925a215.687 215.687 0 0110.875 82.609c-.825 12.616-.888 25.278-2.695 37.827-.9 6.261-1.342 12.681-4.536 18.3-4.183 7.357-10.125 7.191-14.363-.2-2.207-3.851-2.984-8.184-3.4-12.451-4.895-50.144-14.63-99.409-26.823-148.223-1.668-6.68-1.449-12.527 4.328-17.151A8.6 8.6 0 001324.225 121.488zM787.925 282c25.523.531 49.116 1.029 72.709 1.507 4.019.081 8.018.412 11.716 2.058 7.234 3.221 8.169 9.854 1.956 14.872a29.521 29.521 0 01-7.838 4.252c-13.332 5.186-26.816 10.092-40.751 13.258-18.1 4.111-36.265 4.446-53.975-2.455-6.284-2.449-12-5.8-16.324-11.092-7.561-9.251-4.132-19.093 7.579-21.709C771.883 280.7 780.905 282.347 787.925 282zM1453.941 199.147c.264 14.386-6.964 25.147-18.265 29.726-13.05 5.287-27.987 1.222-38.823-10.567-9.809-10.67-11.672-24.073-5.136-36.928 6.406-12.6 22.279-20.36 36.106-17.59 4.314.864 8.654 2.338 11.442 5.706A72.113 72.113 0 011453.941 199.147zM1555.922 303.616a44.129 44.129 0 01-2.236 15.037c-2.741 7.871-9.934 9.251-15.424 2.941a41.592 41.592 0 01-5.659-9.333 100.386 100.386 0 00-31.258-38.191 53.2 53.2 0 01-8.188-7.263c-5.367-5.992-5.073-12.989.739-18.618 5.655-5.477 12.608-7.055 20.271-5.889 18.829 2.864 34.674 18.01 39.165 37.88A103.268 103.268 0 011555.922 303.616zM1159.861 217.374c9.26 1.562 20.167 7.21 28.066 16.951 6.323 7.8 6.523 17.432 1.321 26.237-5.34 9.042-13.888 13.4-24.3 12.729-12.7-.817-22.825-6.937-29.793-17.568-5.5-8.394-6.329-17.5-1.149-26.4C1138.939 220.852 1146.6 216.858 1159.861 217.374zM656.431 204.863c-.309 6.672-.983 13.27-3.973 19.39-4.159 8.513-11.08 13.355-20.418 13.76-9.019.391-16.067-3.9-20.576-11.718-7.347-12.739-6.5-25.583 1.108-37.757a22.053 22.053 0 0126.091-9.385C650.547 183.092 656.831 192.183 656.431 204.863zM386.743 341.9c-5.41-.394-10.6-1.509-15.255-4.326-10.613-6.423-11.794-18.5-2.565-26.8 5.135-4.617 11.434-6.807 18.2-7.337 7.952-.622 15.931-1.133 23.9-1.2 12.067-.1 17.108 8.435 10.876 18.532C413.877 333.785 402.368 341.386 386.743 341.9zM205.776 689.548c-15.233-1.174-30.583-1.522-45.533-5.234-8.493-2.109-16.43-5.429-23.337-10.916-16.964-13.475-21.982-34.321-12.384-53.752 6.605-13.372 17.069-22.944 31.415-27.583 8.209-2.655 16.523-2.848 23.667 3.131 6.715 5.62 6.963 13.25-1.029 16.733-6.242 2.72-10.616 7.951-14.292 13.606-6.351 9.769-5.064 17.165 4.056 24.284 6.665 5.2 14.4 8.278 22.216 11.165 8.74 3.228 17.6 6.15 26.27 9.546 4.939 1.934 10.274 4.109 10.186 10.773-.059 4.519-4.9 7.408-13.253 8.207C211.12 689.761 208.438 689.548 205.776 689.548zM399.59 592.124c-11.971.19-21.373-8.74-21.315-20.245.054-10.462 9.906-19.818 20.973-19.913 11.513-.1 21.323 8.771 21.319 19.277A20.963 20.963 0 01399.59 592.124z"></path>
</svg>
